<!DOCTYPE svg PUBLIC "-//W3C//DTD SVG 1.1//EN" "http://www.w3.org/Graphics/SVG/1.1/DTD/svg11.dtd">
<!-- Uploaded to: SVG Repo, www.svgrepo.com, Transformed by: SVG Repo Mixer Tools -->
<svg fill="#ffffff" width="256px" height="256px" viewBox="-2.88 -2.88 21.76 21.76" xmlns="http://www.w3.org/2000/svg" transform="rotate(0)">
<g id="SVGRepo_bgCarrier" stroke-#ffffffidth="0" trans#fffffform="translate(0,0), scale(1)" transform="translate(0,0), scale(1)">
<rect x="-2.88" y="-2.88" width="21.76" height="21.76" rx="10.88" fill="#E27866" strokewidth="0"/>
</g>
<g id="SVGRepo_tracerCarrier" stroke-linecap="round" stroke-linejoin="round" stroke="#CCCCCC" stroke-#ffffffidth="0.064" stroke-width="0.064"/>
<g id="SVGRepo_iconCarrier"> <path d="m15.71 7.77c-1.22-3.19-4.3-5.29-7.71-5.26-3.44-.07-6.54 2.04-7.72 5.27-.04.15-.04.3 0 .44 1.19 3.22 4.29 5.33 7.72 5.27 3.42.03 6.49-2.07 7.72-5.26.04-.15.04-.31-.01-.46zm-7.71 4.24c-2.7.1-5.18-1.51-6.2-4.01 1.01-2.51 3.49-4.11 6.2-4.01 2.69-.06 5.15 1.53 6.19 4.01-1.05 2.48-3.5 4.07-6.19 4.01zm0-6.66c-.18 0-.36.02-.53.06.26.35.4.77.4 1.21-.05 1.25-1.1 2.21-2.35 2.16-.01 0-.03 0-.04 0h-.07c.42 1.41 1.9 2.21 3.31 1.79s2.21-1.9 1.79-3.31c-.33-1.13-1.35-1.9-2.51-1.91z"/> </g>
</svg>